<svg xmlns="http://www.w3.org/2000/svg" id="Camada_1" viewBox="0 0 350 100"><defs><style>      .st0 {        fill: #555853;      }      .st1 {        isolation: isolate;      }      .st2 {        fill: #18407b;      }      .st3 {        fill: #184079;      }    </style></defs><g><path class="st2" d="M46.5,21.4v-5.3h8.5v23.2h-8.5c-1-3.9-2.8-6.9-5.4-9.2-2.5-2.3-5.3-3.4-8.4-3.4s-5.4.9-7.6,2.6-3.9,4.2-5.1,7.3-1.8,6.8-1.8,11c0,7.1,1.3,12.7,3.9,16.8,2.6,4.1,6.2,6.2,10.9,6.2s5.5-1,7.5-2.8,3.3-4.6,4.2-8.1h-8.9v-11.1h23.7c0,7.1-1.1,13.2-3.3,18.3s-5.3,8.9-9.4,11.6-8.9,4-14.6,4-10.7-1.3-15-4-7.5-6.6-9.8-11.6c-2.3-5.1-3.4-11.1-3.4-18s1.2-12.3,3.5-17.4c2.3-5.1,5.5-9.1,9.6-11.9,4-2.9,8.6-4.3,13.7-4.3s11.9,2.1,15.6,6.4h0Z"></path><path class="st2" d="M108.1,21.1v-5h8.5v23h-8.5c-2.5-8.3-6.7-12.3-12.6-12.5s-5.5,1-7.8,2.9-4,4.6-5.3,8.1c-1.3,3.4-1.9,7.2-1.9,11.3s.6,7.4,1.8,10.7,2.9,5.8,5,7.7c2.1,1.9,4.6,2.9,7.4,2.9s6.4-1.6,8.9-4.6c2.5-3.1,4.2-7.2,5.1-12.2l9.9,6.1c-3.7,15.2-12.1,22.4-24.9,22.8-4,.1-10.4-1.4-14.5-4.1-4.1-2.7-7.3-6.7-9.5-11.7-2.2-5.1-3.3-11-3.3-17.8s1.1-12.1,3.4-17.3c2.3-5.1,5.5-9.1,9.5-12,4-2.9,8.6-4.4,13.6-4.4s11.1,2,15.1,6.1h0Z"></path></g><g><path class="st3" d="M146.8,40l-4.3,4.7c-1-1.1-2.4-1.8-4.3-1.8-3.2,0-5.4,2.7-5.4,6.6s2.6,6.8,5.5,6.8,4.5-1.2,5.1-3.6h-5.3v-4.9h11.2c0,.8.1,1.5.1,2.2,0,8.3-5.6,12.4-10.9,12.4s-12.1-5.3-12.1-12.8,5-12.9,12.1-12.9,6.3,1.3,8.2,3.4h0Z"></path><path class="st3" d="M174.9,49.4c0,7.4-4.9,12.9-11.9,12.9s-11.9-5.5-11.9-12.9,4.9-12.9,11.9-12.9,11.9,5.5,11.9,12.9ZM157.4,49.4c0,3.8,2.3,6.4,5.5,6.4s5.5-2.6,5.5-6.4-2.3-6.4-5.5-6.4-5.5,2.6-5.5,6.4Z"></path><path class="st3" d="M194.3,61.8h-16.9v-24.8h6.1v18.6h10.8v6.2Z"></path><path class="st3" d="M217.8,49.4c0,7.5-4.6,12.4-11.7,12.4h-10v-24.8h10c7.1,0,11.7,4.9,11.7,12.4h0ZM202.3,43.2v12.4h3.7c3.7,0,5.5-2.6,5.5-6.2s-1.8-6.2-5.5-6.2h-3.7Z"></path><path class="st3" d="M237.9,61.8h-17.6v-24.8h17.6v6h-11.5v3.3h10.7v6h-10.7v3.6h11.5v6h0Z"></path><path class="st3" d="M262.1,61.8h-5.9l-9.3-13.9v13.9h-6.1v-24.8h5.9l9.3,13.9v-13.9h6.1v24.8Z"></path><path class="st3" d="M293.3,42.9l-5.4,3.3c-1.1-2-2.8-3.1-4.9-3.1-3.1,0-5.4,2.6-5.4,6.4s2.7,6.4,5.5,6.4,3.9-1.1,5.1-3.1l5,3.9c-2.1,3.5-5.5,5.7-10,5.7-7,0-11.9-5.3-11.9-12.9s4.9-12.9,11.9-12.9,8.3,2.3,10.3,6.3h0Z"></path><path class="st3" d="M301.7,61.8h-6.1v-24.8h6.1v24.8Z"></path><path class="st3" d="M322.6,43.2h-6.4v18.6h-6.1v-18.6h-6.4v-6.2h18.9v6.2h0Z"></path><path class="st3" d="M337.7,52.4v9.4h-6.1v-9.3l-8.5-15.5h7l4.6,9.4,4.6-9.4h6.8l-8.3,15.4h0Z"></path></g><g class="st1"><g class="st1"><path class="st0" d="M129.1,70.3v10.7h-2.6v-10.7h2.6Z"></path><path class="st0" d="M139.4,81h-3.3l-3.1-8.3c0,.8.2,1.5.3,2.2,0,.6,0,1.3,0,2.2v3.9h-2.3v-10.7h3.2l3.2,8.3c-.2-1.4-.3-2.7-.3-4v-4.3h2.3v10.7h0Z"></path></g><g class="st1"><path class="st0" d="M147.5,70.3c.5.2,1,.5,1.5.9l-1.2,1.4c-.3-.3-.7-.4-1-.6s-.7-.2-1-.2c-.7,0-1.3.3-1.7.9-.4.6-.6,1.6-.6,2.8s.2,2.2.6,2.8c.4.6,1,.9,1.7.9s.7,0,1.1-.2c.3-.1.7-.3,1-.7l1.1,1.5c-.4.4-.9.7-1.5,1s-1.2.4-1.9.4c-1,0-1.9-.2-2.6-.7s-1.3-1.1-1.7-1.9c-.4-.9-.6-1.9-.6-3.1s.2-2.2.6-3c.4-.9,1-1.5,1.7-1.9s1.6-.7,2.5-.7,1.3,0,1.8.3h0Z"></path></g><g class="st1"><path class="st0" d="M157.9,71.5c.9,1,1.3,2.4,1.3,4.2s-.2,2.2-.6,3-1,1.5-1.7,2c-.7.4-1.6.7-2.6.7s-1.9-.2-2.6-.7-1.3-1.1-1.6-1.9-.6-1.9-.6-3,.2-2.2.6-3c.4-.9,1-1.5,1.6-2,.7-.4,1.6-.7,2.6-.7,1.5,0,2.7.5,3.6,1.5h0ZM152.7,72.8c-.3.6-.5,1.6-.5,2.9s.2,2.3.5,2.9c.3.6.9.9,1.6.9s1.3-.3,1.6-.9c.3-.6.5-1.6.5-2.9s-.2-2.3-.5-2.9c-.3-.6-.9-.9-1.6-.9s-1.3.3-1.6.9h0Z"></path><path class="st0" d="M164.2,76.9h-1v4.1h-2.6v-10.7h3.5c1.5,0,2.6.3,3.3.8.7.5,1.1,1.3,1.1,2.5s-.2,1.3-.5,1.7c-.3.5-.9.9-1.6,1.2l2.7,4.6h-2.9l-2.2-4.1h0ZM163.2,75.2h1.1c.6,0,1-.1,1.3-.4.3-.3.4-.7.4-1.2s-.2-.9-.5-1.1-.8-.3-1.4-.3h-.9v3.1h0Z"></path><path class="st0" d="M177,71.2c.8.6,1.2,1.5,1.2,2.6s-.4,2.1-1.2,2.7c-.8.6-1.8.9-3.1.9h-1.2v3.6h-2.6v-10.7h3.5c1.4,0,2.5.3,3.3.9h0ZM175.1,75.2c.3-.3.5-.7.5-1.4,0-1.1-.7-1.7-1.9-1.7h-.9v3.5h1c.6,0,1-.1,1.4-.4h0Z"></path><path class="st0" d="M187.4,71.5c.9,1,1.3,2.4,1.3,4.2s-.2,2.2-.6,3c-.4.9-1,1.5-1.7,2-.7.4-1.6.7-2.6.7s-1.9-.2-2.6-.7-1.3-1.1-1.6-1.9-.6-1.9-.6-3,.2-2.2.6-3c.4-.9,1-1.5,1.6-2,.7-.4,1.6-.7,2.6-.7,1.5,0,2.7.5,3.6,1.5h0ZM182.2,72.8c-.3.6-.5,1.6-.5,2.9s.2,2.3.5,2.9c.3.6.9.9,1.6.9s1.3-.3,1.6-.9c.3-.6.5-1.6.5-2.9s-.2-2.3-.5-2.9c-.3-.6-.9-.9-1.6-.9s-1.3.3-1.6.9h0Z"></path><path class="st0" d="M193.7,76.9h-1v4.1h-2.6v-10.7h3.5c1.5,0,2.6.3,3.3.8.7.5,1.1,1.3,1.1,2.5s-.2,1.3-.5,1.7c-.3.5-.9.9-1.6,1.2l2.7,4.6h-2.9l-2.2-4.1h0ZM192.7,75.2h1.1c.6,0,1-.1,1.3-.4.3-.3.4-.7.4-1.2s-.2-.9-.5-1.1c-.3-.2-.8-.3-1.4-.3h-.9v3.1h0Z"></path></g><g class="st1"><path class="st0" d="M205.4,81l-.6-2.3h-3.1l-.5,2.3h-2.6l3.3-10.7h3.1l3.3,10.7h-2.7ZM202.2,76.9h2.3l-1.1-4.7-1.1,4.7h0Z"></path></g><g class="st1"><path class="st0" d="M214.9,82.2c.3.3.4.6.4,1s-.2,1-.6,1.3c-.4.3-1,.5-1.7.5s-.7,0-1-.1c-.3,0-.6-.2-.8-.3l.6-1.1c.3.2.7.3,1,.3.5,0,.7-.2.7-.5s-.1-.3-.3-.4-.6-.1-1.1-.1l.2-1.5c-1.3-.2-2.3-.8-2.9-1.7-.7-1-1.1-2.3-1.1-3.9s.2-2.2.6-3c.4-.9,1-1.5,1.7-1.9s1.6-.7,2.5-.7,1.3,0,1.8.3c.5.2,1,.5,1.5.9l-1.2,1.4c-.3-.3-.7-.4-1-.6s-.7-.2-1-.2c-.7,0-1.3.3-1.7.9-.4.6-.6,1.6-.6,2.8s.2,2.2.6,2.8c.4.6,1,.9,1.7.9s.7,0,1.1-.2c.3-.1.7-.3,1-.7l1.1,1.5c-.3.3-.8.7-1.3.9-.5.3-1,.4-1.6.5v.5c.6,0,1,.2,1.2.5h0Z"></path></g><g class="st1"><path class="st0" d="M223.3,81l-.6-2.3h-3.1l-.6,2.3h-2.6l3.3-10.7h3.1l3.3,10.7h-2.7ZM221.5,69.1c-.2,0-.3-.2-.5-.3-.3-.2-.5-.3-.7-.3s-.3,0-.4.2c-.1,0-.3.3-.4.5l-1.2-.6c.2-.5.5-1,.8-1.3s.7-.5,1.2-.5.4,0,.6.1c.2,0,.3.2.6.3.1,0,.3.2.3.2s.2,0,.3,0c.2,0,.3,0,.4-.2s.3-.3.4-.5l1.2.6c-.2.6-.5,1-.8,1.3-.3.3-.7.5-1.2.5s-.4,0-.6,0h0ZM220.1,76.9h2.3l-1.1-4.7-1.1,4.7h0Z"></path></g><g class="st1"><path class="st0" d="M234.5,71.5c.9,1,1.3,2.4,1.3,4.2s-.2,2.2-.6,3c-.4.9-1,1.5-1.7,2-.7.4-1.6.7-2.6.7s-1.9-.2-2.6-.7-1.3-1.1-1.6-1.9c-.4-.8-.6-1.9-.6-3s.2-2.2.6-3,1-1.5,1.6-2c.7-.4,1.6-.7,2.6-.7,1.5,0,2.7.5,3.6,1.5h0ZM229.3,72.8c-.3.6-.5,1.6-.5,2.9s.2,2.3.5,2.9c.3.6.9.9,1.6.9s1.3-.3,1.6-.9c.3-.6.5-1.6.5-2.9s-.2-2.3-.5-2.9c-.3-.6-.9-.9-1.6-.9s-1.3.3-1.6.9h0Z"></path><path class="st0" d="M247.6,70.3l-.3,1.8h-3.8v2.6h3.3v1.8h-3.3v2.7h4v1.8h-6.6v-10.7h6.6Z"></path></g><g class="st1"><path class="st0" d="M259,70.3c.5.2,1,.5,1.5.9l-1.2,1.4c-.3-.3-.7-.4-1-.6s-.7-.2-1-.2c-.7,0-1.3.3-1.7.9-.4.6-.6,1.6-.6,2.8s.2,2.2.6,2.8c.4.6,1,.9,1.7.9s.7,0,1.1-.2c.3-.1.7-.3,1-.7l1.1,1.5c-.4.4-.9.7-1.5,1-.6.3-1.2.4-1.9.4-1,0-1.9-.2-2.6-.7s-1.3-1.1-1.7-1.9c-.4-.9-.6-1.9-.6-3.1s.2-2.2.6-3c.4-.9,1-1.5,1.7-1.9s1.6-.7,2.5-.7,1.3,0,1.8.3h0Z"></path></g><g class="st1"><path class="st0" d="M269.3,71.5c.9,1,1.3,2.4,1.3,4.2s-.2,2.2-.6,3c-.4.9-1,1.5-1.7,2-.7.4-1.6.7-2.6.7s-1.9-.2-2.6-.7-1.3-1.1-1.6-1.9c-.4-.8-.6-1.9-.6-3s.2-2.2.6-3c.4-.9,1-1.5,1.6-2,.7-.4,1.6-.7,2.6-.7,1.5,0,2.7.5,3.6,1.5h0ZM264.1,72.8c-.3.6-.5,1.6-.5,2.9s.2,2.3.5,2.9c.3.6.9.9,1.6.9s1.3-.3,1.6-.9c.3-.6.5-1.6.5-2.9s-.2-2.3-.5-2.9c-.3-.6-.9-.9-1.6-.9s-1.3.3-1.6.9h0Z"></path><path class="st0" d="M280.4,81h-3.3l-3.1-8.3c0,.8.2,1.5.3,2.2,0,.6,0,1.3,0,2.2v3.9h-2.3v-10.7h3.2l3.2,8.3c-.2-1.4-.3-2.7-.3-4v-4.3h2.3v10.7h0Z"></path></g><g class="st1"><path class="st0" d="M287.9,70.4c.6.2,1.1.6,1.6,1l-1.2,1.4c-.7-.6-1.5-.9-2.3-.9s-.8,0-1,.3c-.3.2-.4.4-.4.8s0,.4.2.6c.1.1.3.3.6.4s.7.3,1.3.5c1.1.3,1.9.8,2.4,1.3s.8,1.3.8,2.2-.2,1.3-.5,1.8c-.3.5-.8.9-1.5,1.2s-1.4.4-2.3.4-1.6-.1-2.3-.4c-.7-.3-1.3-.7-1.7-1.1l1.3-1.4c.4.3.8.6,1.3.8.4.2.9.3,1.4.3s1-.1,1.3-.3.5-.6.5-1,0-.5-.2-.7c-.1-.2-.3-.3-.6-.5-.3-.1-.7-.3-1.2-.5-1.2-.3-2-.8-2.5-1.3s-.7-1.2-.7-2,.2-1.2.5-1.6c.3-.5.8-.8,1.4-1.1s1.3-.4,2-.4,1.5.1,2.1.3h0Z"></path></g><g class="st1"><path class="st0" d="M298.3,70.3l-.3,2h-2.6v8.8h-2.6v-8.8h-2.8v-2h8.2Z"></path></g><g class="st1"><path class="st0" d="M302.8,76.9h-1v4.1h-2.6v-10.7h3.5c1.5,0,2.6.3,3.3.8.7.5,1.1,1.3,1.1,2.5s-.2,1.3-.5,1.7-.9.9-1.6,1.2l2.7,4.6h-2.9l-2.2-4.1h0ZM301.8,75.2h1.1c.6,0,1-.1,1.3-.4.3-.3.4-.7.4-1.2s-.2-.9-.5-1.1-.8-.3-1.4-.3h-.9v3.1h0Z"></path></g><g class="st1"><path class="st0" d="M316.9,77.5c0,.7-.2,1.4-.5,2-.3.6-.8,1-1.4,1.3-.7.3-1.4.5-2.3.5-1.3,0-2.4-.3-3.1-1-.7-.7-1.1-1.6-1.1-2.8v-7.2h2.6v7.1c0,.7.1,1.2.4,1.6.3.3.7.5,1.3.5s1-.2,1.3-.5c.3-.3.4-.9.4-1.6v-7.1h2.6v7.2h0Z"></path><path class="st0" d="M324.9,82.2c.3.3.4.6.4,1s-.2,1-.6,1.3c-.4.3-1,.5-1.7.5s-.7,0-1-.1c-.3,0-.6-.2-.8-.3l.6-1.1c.3.2.7.3,1,.3.5,0,.7-.2.7-.5s-.1-.3-.3-.4-.6-.1-1.1-.1l.2-1.5c-1.3-.2-2.2-.8-2.9-1.7s-1.1-2.3-1.1-3.9.2-2.2.6-3c.4-.9,1-1.5,1.7-1.9s1.6-.7,2.5-.7,1.3,0,1.8.3c.5.2,1,.5,1.5.9l-1.2,1.4c-.3-.3-.7-.4-1-.6s-.7-.2-1-.2c-.7,0-1.3.3-1.7.9-.4.6-.6,1.6-.6,2.8s.2,2.2.6,2.8c.4.6,1,.9,1.7.9s.7,0,1.1-.2c.3-.1.7-.3,1-.7l1.1,1.5c-.3.3-.8.7-1.3.9-.5.3-1,.4-1.6.5v.5c.6,0,1,.2,1.2.5h0Z"></path></g><g class="st1"><path class="st0" d="M333.3,81l-.6-2.3h-3.1l-.5,2.3h-2.6l3.3-10.7h3.1l3.3,10.7h-2.7ZM331.5,69.1c-.2,0-.3-.2-.6-.3-.3-.2-.5-.3-.7-.3s-.3,0-.4.2-.3.3-.4.5l-1.2-.6c.2-.5.5-1,.8-1.3s.7-.5,1.2-.5.4,0,.6.1c.2,0,.3.2.6.3.1,0,.3.2.3.2,0,0,.2,0,.3,0,.2,0,.3,0,.4-.2.1,0,.3-.3.4-.5l1.2.6c-.2.6-.5,1-.8,1.3-.3.3-.7.5-1.2.5s-.4,0-.6,0h0ZM330.1,76.9h2.3l-1.1-4.7-1.1,4.7h0Z"></path></g><g class="st1"><path class="st0" d="M344.5,71.5c.9,1,1.3,2.4,1.3,4.2s-.2,2.2-.6,3c-.4.9-1,1.5-1.7,2-.7.4-1.6.7-2.6.7s-1.9-.2-2.6-.7-1.3-1.1-1.6-1.9c-.4-.8-.6-1.9-.6-3s.2-2.2.6-3c.4-.9,1-1.5,1.6-2,.7-.4,1.6-.7,2.6-.7,1.5,0,2.7.5,3.6,1.5h0ZM339.3,72.8c-.3.6-.5,1.6-.5,2.9s.2,2.3.5,2.9c.3.6.9.9,1.6.9s1.3-.3,1.6-.9c.3-.6.5-1.6.5-2.9s-.2-2.3-.5-2.9c-.3-.6-.9-.9-1.6-.9s-1.3.3-1.6.9h0Z"></path></g></g></svg>