<?xml version="1.0" encoding="UTF-8"?>
<svg id="Camada_1" xmlns="http://www.w3.org/2000/svg" version="1.1" viewBox="0 0 1000 391.8">
  <!-- Generator: Adobe Illustrator 30.1.0, SVG Export Plug-In . SVG Version: 2.1.1 Build 136)  -->
  <defs>
    <style>
      .st0 {
        fill: #fff;
      }
    </style>
  </defs>
  <g>
    <path class="st0" d="M126.6,121.5v-14.6h23.3v63.3h-23.3c-2.9-10.5-7.7-18.9-14.6-25.1-6.9-6.2-14.6-9.4-23-9.4s-14.8,2.4-20.8,7.1c-6,4.7-10.7,11.3-14,19.9-3.3,8.6-4.9,18.6-4.9,29.9,0,19.4,3.6,34.7,10.8,45.8,7.2,11.2,17.1,16.8,29.7,16.8s15.2-2.6,20.5-7.7c5.3-5.1,9.1-12.4,11.4-22h-24.3v-30.4h64.6c0,19.5-3,36.1-8.9,49.9-5.9,13.8-14.4,24.4-25.5,31.7-11.1,7.3-24.4,10.9-39.8,10.9s-29.2-3.7-40.8-11c-11.6-7.4-20.6-17.9-26.9-31.8-6.3-13.8-9.4-30.2-9.4-49.2s3.2-33.6,9.5-47.6c6.4-13.9,15.1-24.8,26.1-32.6,11.1-7.8,23.6-11.7,37.5-11.7s32.6,5.9,42.8,17.6Z"/>
    <path class="st0" d="M294.9,120.7v-13.8h23.3v62.9h-23.3c-6.9-22.7-18.3-34-34.4-34s-15,2.7-21.2,8.1c-6.2,5.4-11,12.7-14.4,22-3.4,9.3-5.2,19.6-5.2,30.9s1.6,20.3,4.9,29.1c3.3,8.8,7.8,15.9,13.6,21.1,5.8,5.3,12.6,7.9,20.2,7.9s17.5-4.2,24.4-12.6c6.9-8.4,11.5-19.5,13.9-33.3l27.1,16.7c-10.2,41.4-32.9,62.2-67.9,62.2s-28.3-3.8-39.5-11.3c-11.3-7.5-20-18.2-26-32-6.1-13.8-9.1-30-9.1-48.5s3.1-33.2,9.4-47.2c6.3-14,14.9-25,25.9-32.9,11-7.9,23.4-11.9,37.1-11.9s30.4,5.6,41.3,16.7Z"/>
  </g>
  <g>
    <path class="st0" d="M400.7,172.3l-11.8,12.8c-2.8-3-6.5-5-11.7-5-8.7,0-14.9,7.4-14.9,17.9s7.3,18.5,15.1,18.5,12.2-3.3,13.9-10h-14.4v-13.5h30.6c.3,2.1.4,4.2.4,6.1,0,22.6-15.3,33.9-29.7,33.9s-33-14.5-33-35.1,13.6-35.1,33-35.1,17.3,3.5,22.5,9.4Z"/>
    <path class="st0" d="M477.4,198.1c0,20.2-13.5,35.1-32.5,35.1s-32.5-14.9-32.5-35.1,13.5-35.1,32.5-35.1,32.5,14.9,32.5,35.1ZM429.7,198.1c0,10.4,6.2,17.5,15.2,17.5s15.2-7.2,15.2-17.5-6.2-17.5-15.2-17.5-15.2,7.2-15.2,17.5Z"/>
    <path class="st0" d="M530.3,232h-46.4v-67.7h16.7v50.8h29.6v16.9Z"/>
    <path class="st0" d="M594.7,198.1c0,20.4-12.7,33.9-31.9,33.9h-27.2v-67.7h27.2c19.3,0,31.9,13.5,31.9,33.9ZM552.3,181.1v34h10c10.1,0,15-7.2,15-17s-4.9-17-15-17h-10Z"/>
    <path class="st0" d="M649.4,232h-48.1v-67.7h48.1v16.4h-31.4v9h29.2v16.4h-29.2v9.7h31.4v16.4Z"/>
    <path class="st0" d="M715.7,232h-16.3l-25.4-38.1v38.1h-16.7v-67.7h16.3l25.4,38.1v-38.1h16.7v67.7Z"/>
    <path class="st0" d="M800.9,180.1l-14.8,9c-3-5.6-7.6-8.6-13.5-8.6-8.5,0-14.9,7.2-14.9,17.5s7.3,17.5,14.9,17.5,10.6-2.9,13.9-8.5l13.7,10.5c-5.8,9.6-15.2,15.6-27.4,15.6-19,0-32.5-14.5-32.5-35.1s13.5-35.1,32.5-35.1,22.7,6.3,28.1,17.2Z"/>
    <path class="st0" d="M823.8,232h-16.7v-67.7h16.7v67.7Z"/>
    <path class="st0" d="M880.8,181.1h-17.5v50.8h-16.7v-50.8h-17.5v-16.9h51.7v16.9Z"/>
    <path class="st0" d="M922.1,206.3v25.6h-16.7v-25.4l-23.2-42.3h19.2l12.4,25.6,12.4-25.6h18.6l-22.7,42.1Z"/>
  </g>
  <g>
    <path class="st0" d="M360.1,287.3h-15v-34h15v3.6h-11v10.8h10.3v3.6h-10.3v12.3h11v3.7Z"/>
    <path class="st0" d="M378.8,287.3l-8.9-28.9h-.2c0,1.4.2,2.7.2,4,0,1.3,0,2.4,0,3.4v21.4h-3.8v-34h5.8l8.6,27.8h.1l8.6-27.8h5.8v34h-4v-21.4c0-1,0-2.1,0-3.4,0-1.3.1-2.6.2-4h-.2l-8.9,28.9h-3.5Z"/>
    <path class="st0" d="M409.7,253.4c3.6,0,6.3.8,8.1,2.5,1.7,1.7,2.6,4.2,2.6,7.5s-.9,5.9-2.6,7.8c-1.7,1.9-4.5,2.9-8.3,2.9h-2.7v13.2h-4v-34h7ZM409.5,257h-2.8v13.6h2.3c2.5,0,4.3-.5,5.5-1.6s1.7-2.9,1.7-5.4-.5-4-1.6-5c-1.1-1-2.7-1.5-5-1.5Z"/>
    <path class="st0" d="M432.8,253.4c3.7,0,6.4.8,8.1,2.4,1.7,1.6,2.6,4,2.6,7.2s-.5,4.3-1.5,5.8c-1,1.5-2.4,2.6-4.1,3.4l7.5,15.2h-4.6l-6.6-14.2h-4.3v14.2h-4v-34h7ZM432.7,257.1h-2.9v12.7h3.2c4.2,0,6.3-2.2,6.3-6.6s-.5-3.8-1.6-4.7c-1.1-1-2.7-1.4-5-1.4Z"/>
    <path class="st0" d="M464.8,287.3h-15v-34h15v3.6h-11v10.8h10.3v3.6h-10.3v12.3h11v3.7Z"/>
    <path class="st0" d="M485.9,287.3h-15v-34h15v3.6h-11v10.8h10.3v3.6h-10.3v12.3h11v3.7Z"/>
    <path class="st0" d="M513.9,287.3h-4.8l-13.5-27.8h-.2c0,1.2.2,2.5.2,3.8,0,1.3,0,2.6,0,3.8v20.3h-3.8v-34h4.8l13.4,27.5h.1c0-1.2-.1-2.5-.2-3.8s0-2.6,0-3.7v-20h3.8v34Z"/>
    <path class="st0" d="M542.5,270c0,5.7-1.2,10.1-3.5,13-2.3,2.9-5.7,4.4-10,4.4h-7.6v-34h8.1c4.1,0,7.4,1.4,9.6,4.2,2.3,2.8,3.4,6.9,3.4,12.4ZM538.3,270.1c0-4.4-.8-7.7-2.3-9.9-1.6-2.2-3.8-3.2-6.8-3.2h-3.7v26.7h3.2c3.2,0,5.6-1.1,7.2-3.4,1.6-2.3,2.4-5.7,2.4-10.2Z"/>
    <path class="st0" d="M557.4,287.3h-10.7v-2.3l3.3-.9v-27.6l-3.3-.9v-2.3h10.7v2.3l-3.3.9v27.6l3.3.9v2.3Z"/>
    <path class="st0" d="M575.5,287.3l-8.9-28.9h-.2c0,1.4.2,2.7.2,4,0,1.3,0,2.4,0,3.4v21.4h-3.8v-34h5.8l8.6,27.8h.1l8.6-27.8h5.8v34h-4v-21.4c0-1,0-2.1,0-3.4,0-1.3.1-2.6.2-4h-.2l-8.9,28.9h-3.5Z"/>
    <path class="st0" d="M614.4,287.3h-15v-34h15v3.6h-11v10.8h10.3v3.6h-10.3v12.3h11v3.7Z"/>
    <path class="st0" d="M642.4,287.3h-4.8l-13.5-27.8h-.2c0,1.2.2,2.5.2,3.8,0,1.3,0,2.6,0,3.8v20.3h-3.8v-34h4.8l13.4,27.5h.1c0-1.2-.1-2.5-.2-3.8s0-2.6,0-3.7v-20h3.8v34Z"/>
    <path class="st0" d="M658.3,287.3h-4v-30.3h-7.7v-3.7h19.4v3.7h-7.7v30.3Z"/>
    <path class="st0" d="M692.6,270.3c0,3.3-.4,6.3-1.3,9-.8,2.6-2.2,4.7-4,6.3-1.8,1.5-4.1,2.3-6.9,2.3s-5.2-.8-6.9-2.3c-1.8-1.6-3.1-3.7-3.9-6.3-.8-2.6-1.2-5.6-1.2-8.9,0-5.6,1-9.9,3-12.9,2-3,5.1-4.4,9.1-4.4s5.1.8,6.9,2.3c1.8,1.5,3.1,3.6,3.9,6.2.8,2.6,1.3,5.6,1.3,8.9ZM672.7,270.3c0,4.5.7,7.9,2,10.3s3.3,3.6,5.9,3.6,4.6-1.2,5.9-3.5c1.3-2.4,2-5.8,2-10.3s-.6-7.9-1.9-10.2c-1.3-2.3-3.2-3.5-5.8-3.5s-4.7,1.2-6,3.5c-1.3,2.3-2,5.8-2,10.2Z"/>
    <path class="st0" d="M714.5,278.1c0,1.9-.4,3.6-1.2,5.1-.8,1.5-1.9,2.6-3.4,3.4-1.5.8-3.2,1.2-5.2,1.2-3,0-5.6-.5-7.7-1.5v-4.1c1.1.6,2.3,1.1,3.7,1.4,1.4.3,2.7.5,4,.5,1.9,0,3.3-.5,4.3-1.6,1-1.1,1.5-2.4,1.5-4s-.2-2-.6-2.8c-.4-.8-1-1.5-1.9-2.1-.9-.6-2.1-1.3-3.6-2-1.5-.7-2.8-1.5-3.9-2.4-1.1-.8-1.9-1.9-2.4-3-.5-1.2-.8-2.7-.8-4.4s.4-3.3,1.2-4.7c.8-1.3,1.9-2.4,3.2-3.1,1.4-.7,3-1.1,4.8-1.1s2.8.2,4.1.5c1.3.3,2.4.7,3.4,1.2l-1.3,3.7c-1-.5-2-.9-3.1-1.2-1.1-.3-2.1-.5-3.1-.5-1.7,0-2.9.5-3.8,1.4-.9.9-1.3,2.1-1.3,3.6s.2,2.1.5,2.8c.4.7,1,1.4,1.8,2,.8.6,2,1.3,3.5,2,2.4,1.1,4.2,2.4,5.4,3.9,1.2,1.5,1.8,3.4,1.8,5.7Z"/>
    <path class="st0" d="M738.6,287.3h-10.7v-2.3l3.3-.9v-27.6l-3.3-.9v-2.3h10.7v2.3l-3.3.9v27.6l3.3.9v2.3Z"/>
    <path class="st0" d="M756.7,287.3l-8.9-28.9h-.2c0,1.4.2,2.7.2,4,0,1.3,0,2.4,0,3.4v21.4h-3.8v-34h5.8l8.6,27.8h.1l8.6-27.8h5.8v34h-4v-21.4c0-1,0-2.1,0-3.4,0-1.3.1-2.6.2-4h-.2l-8.9,28.9h-3.5Z"/>
    <path class="st0" d="M803.5,270.3c0,3.3-.4,6.3-1.3,9-.8,2.6-2.2,4.7-4,6.3-1.8,1.5-4.1,2.3-6.9,2.3s-5.2-.8-6.9-2.3c-1.8-1.6-3.1-3.7-3.9-6.3-.8-2.6-1.2-5.6-1.2-8.9,0-5.6,1-9.9,3-12.9,2-3,5.1-4.4,9.1-4.4s5.1.8,6.9,2.3c1.8,1.5,3.1,3.6,3.9,6.2.8,2.6,1.3,5.6,1.3,8.9ZM783.6,270.3c0,4.5.7,7.9,2,10.3s3.3,3.6,5.9,3.6,4.6-1.2,5.9-3.5c1.3-2.4,2-5.8,2-10.3s-.6-7.9-1.9-10.2c-1.3-2.3-3.2-3.5-5.8-3.5s-4.7,1.2-6,3.5c-1.3,2.3-2,5.8-2,10.2Z"/>
    <path class="st0" d="M809.8,253.4h8.1c3.3,0,5.9.7,7.6,2,1.7,1.3,2.6,3.4,2.6,6.3s-.4,3.8-1.3,5.2c-.9,1.3-2.2,2.2-3.9,2.5v.2c1.9.4,3.4,1.3,4.5,2.6,1.1,1.3,1.6,3.1,1.6,5.5s-.8,5.3-2.5,7.1c-1.7,1.7-4,2.6-7,2.6h-9.6v-34ZM813.8,267.9h4.3c2.1,0,3.6-.5,4.5-1.5.9-1,1.3-2.4,1.3-4.4,0-3.4-2-5.1-6-5.1h-4v11ZM813.8,271.4v12.5h5c2,0,3.5-.6,4.4-1.7.9-1.1,1.4-2.7,1.4-4.8s-.5-3.4-1.6-4.5-2.6-1.6-4.7-1.6h-4.6Z"/>
    <path class="st0" d="M843.3,287.3h-10.7v-2.3l3.3-.9v-27.6l-3.3-.9v-2.3h10.7v2.3l-3.3.9v27.6l3.3.9v2.3Z"/>
    <path class="st0" d="M848.8,287.3v-34h4v30.3h10.9v3.7h-15Z"/>
    <path class="st0" d="M877,287.3h-10.7v-2.3l3.3-.9v-27.6l-3.3-.9v-2.3h10.7v2.3l-3.3.9v27.6l3.3.9v2.3Z"/>
    <path class="st0" d="M898.4,287.3l-2.9-10.6h-9.5l-2.9,10.6h-4.2l9.7-34h4.5l9.7,34h-4.2ZM894.6,273l-2.9-10.9c-.2-.7-.3-1.5-.6-2.5-.2-1-.4-1.8-.5-2.5-.3,1.7-.7,3.4-1,4.9l-2.8,10.9h7.8ZM898.1,242.9v.4c-.4.7-.9,1.5-1.7,2.4-.8.9-1.6,1.8-2.4,2.7-.8.9-1.6,1.6-2.3,2.2h-2.5v-.5c.8-1.2,1.6-2.4,2.4-3.6.8-1.2,1.4-2.4,1.9-3.5h4.7Z"/>
    <path class="st0" d="M913.4,253.4c3.7,0,6.4.8,8.1,2.4,1.7,1.6,2.6,4,2.6,7.2s-.5,4.3-1.5,5.8c-1,1.5-2.4,2.6-4.1,3.4l7.5,15.2h-4.6l-6.6-14.2h-4.3v14.2h-4v-34h7ZM913.3,257.1h-2.9v12.7h3.2c4.2,0,6.3-2.2,6.3-6.6s-.5-3.8-1.6-4.7c-1.1-1-2.7-1.4-5-1.4Z"/>
    <path class="st0" d="M939,287.3h-10.7v-2.3l3.3-.9v-27.6l-3.3-.9v-2.3h10.7v2.3l-3.3.9v27.6l3.3.9v2.3Z"/>
    <path class="st0" d="M967.4,270.3c0,3.3-.4,6.3-1.3,9-.8,2.6-2.2,4.7-4,6.3-1.8,1.5-4.1,2.3-6.9,2.3s-5.2-.8-6.9-2.3c-1.8-1.6-3.1-3.7-3.9-6.3-.8-2.6-1.2-5.6-1.2-8.9,0-5.6,1-9.9,3-12.9,2-3,5.1-4.4,9.1-4.4s5.1.8,6.9,2.3c1.8,1.5,3.1,3.6,3.9,6.2.8,2.6,1.3,5.6,1.3,8.9ZM947.5,270.3c0,4.5.7,7.9,2,10.3,1.3,2.4,3.3,3.6,5.9,3.6s4.6-1.2,5.9-3.5c1.3-2.4,2-5.8,2-10.3s-.6-7.9-1.9-10.2c-1.3-2.3-3.2-3.5-5.8-3.5s-4.7,1.2-6,3.5c-1.3,2.3-2,5.8-2,10.2Z"/>
    <path class="st0" d="M989.3,278.1c0,1.9-.4,3.6-1.2,5.1-.8,1.5-1.9,2.6-3.4,3.4-1.5.8-3.2,1.2-5.2,1.2-3,0-5.6-.5-7.7-1.5v-4.1c1.1.6,2.3,1.1,3.7,1.4,1.4.3,2.7.5,4,.5,1.9,0,3.3-.5,4.3-1.6,1-1.1,1.5-2.4,1.5-4s-.2-2-.6-2.8c-.4-.8-1-1.5-1.9-2.1-.9-.6-2.1-1.3-3.6-2-1.5-.7-2.8-1.5-3.9-2.4-1.1-.8-1.9-1.9-2.4-3-.5-1.2-.8-2.7-.8-4.4s.4-3.3,1.2-4.7c.8-1.3,1.9-2.4,3.2-3.1,1.4-.7,3-1.1,4.8-1.1s2.8.2,4.1.5c1.3.3,2.4.7,3.4,1.2l-1.3,3.7c-1-.5-2-.9-3.1-1.2-1.1-.3-2.1-.5-3.1-.5-1.7,0-2.9.5-3.8,1.4-.9.9-1.3,2.1-1.3,3.6s.2,2.1.5,2.8c.4.7,1,1.4,1.8,2,.8.6,2,1.3,3.5,2,2.4,1.1,4.2,2.4,5.4,3.9,1.2,1.5,1.8,3.4,1.8,5.7Z"/>
  </g>
</svg>